<?xml version="1.0" encoding="UTF-8"?>
<svg width="69px" height="103px" viewBox="0 0 69 103" version="1.1" xmlns="http://www.w3.org/2000/svg" xmlns:xlink="http://www.w3.org/1999/xlink">
    <title>p2</title>
    <g id="Page-1" stroke="none" stroke-width="1" fill="none" fill-rule="evenodd">
        <path d="M27.7549996,2.22999969 C28.9249996,3.65499969 28.9049996,5.23499969 28.9499996,6.98499969 C28.9249996,9.98999969 29.0049996,12.9699997 29.2299996,15.9649997 C31.8599996,13.6249997 33.8599996,11.1649997 37.1599996,9.66999969 C40.5199996,8.27499969 44.7249996,8.99999969 46.5099996,12.4199997 C47.3049996,14.7949997 47.1599996,17.8449997 44.9499996,19.4399997 C41.4349996,22.1349997 37.6399996,21.9399997 33.4549996,22.2899997 C35.6599996,24.9049997 38.3999996,26.4599997 40.2749996,29.1949997 C40.8149996,29.9399997 40.7999996,31.0149997 40.9399996,31.9049997 C40.1349996,31.8199997 39.1449996,31.9199997 38.4099996,31.5599997 C37.2999996,30.7349997 36.4499996,29.5049997 35.5149996,28.4949997 C33.7749996,26.5199997 31.6999996,24.9249997 29.4599996,23.5599997 C28.8099996,27.4499997 29.1399996,31.5549997 29.0699996,35.4999997 C29.2049996,38.9499997 29.0349996,42.4299997 29.2799996,45.8699997 C29.3349996,47.0899997 30.5349996,46.7499997 31.3849996,46.9899997 C32.3249996,44.1999997 31.3399996,41.4399997 32.2549996,38.7349997 C33.6999996,34.9199997 40.3349996,34.6899997 41.8399996,38.5999997 C43.1999996,42.1149997 42.0049996,46.2199997 43.0749996,49.8699997 C43.6599996,49.8449997 44.2449996,49.8249997 44.8299996,49.8049997 C45.1899996,47.7049997 44.9799996,45.4749997 45.4849996,43.4199997 C46.8299996,39.8399997 52.2599996,39.6649997 54.2499996,42.7099997 C56.6799996,46.0649997 55.3299996,50.8599997 56.1499996,54.9349997 C56.6749996,54.7199997 57.1999996,54.5199997 57.7249996,54.3149997 C57.9249996,52.5249997 57.9399996,50.6149997 58.4399996,48.8849997 C59.1299996,47.1299997 61.2949996,46.2149997 63.0649996,46.1549997 C64.8449996,45.9599997 66.2199996,47.4949997 67.2349996,48.7499997 C68.2799996,49.9999997 68.2999996,51.4199997 68.3149996,52.9749997 C68.2399996,59.9899997 68.2749996,67.0049997 68.3099996,74.0199997 C68.2949996,75.3249997 68.1849996,76.6149997 67.7999996,77.8649997 C66.1249996,83.0399997 63.9849996,87.9299997 61.9049996,92.9299997 C60.9749996,95.1699997 61.0149996,97.3849997 60.6399996,99.7249997 C60.4849996,100.54 60.2399996,101.57 59.3099996,101.8 C57.4749996,102.315 55.3949996,102.195 53.4999996,102.205 C43.6199996,102.09 33.7299996,102.13 23.8499996,102.33 C22.5999996,102.29 20.9849996,102.32 19.9149996,101.595 C19.0449996,99.8349997 19.1199996,97.5499997 18.6949996,95.6399997 C18.2049996,92.9349997 16.4999996,90.7049997 14.9649996,88.5049997 C12.1149996,84.4499997 8.54999962,80.4599997 6.52499962,75.9149997 C5.00999962,72.5599997 5.37499962,68.7149997 4.90499962,64.9899997 C4.54999962,60.7049997 4.51499962,55.9749997 7.56499962,52.5749997 C9.66999962,50.3249997 11.9249996,47.6799997 14.7999996,46.4949997 C15.7099996,52.4799997 14.7049996,58.8299997 15.3399996,64.8199997 C16.3449996,64.6449997 17.2849996,64.9649997 17.6899996,63.7599997 C18.1999996,61.2649997 17.8699996,58.5449997 17.9149996,55.9999997 C17.7449996,48.8199997 18.3199996,41.6749997 18.0099996,34.4999997 C17.8099996,30.9799997 18.2749996,27.5049997 17.8349996,23.9899997 C16.1499996,24.6649997 14.5799996,25.5149997 13.2249996,26.7399997 C11.6749996,28.0349997 10.5549996,29.7449997 9.02999962,31.0499997 C8.26499962,31.7499997 7.31499962,31.5299997 6.34499962,31.6199997 C6.52999962,30.5899997 6.61999962,29.6199997 7.25499962,28.7449997 C8.91499962,26.2299997 11.6799996,24.2049997 13.9549996,22.2349997 C10.8549996,22.0149997 7.05499962,22.2049997 4.26999962,20.7199997 C2.27999962,19.6899997 0.509999623,18.2199997 0.104999623,15.8949997 C-0.560000377,12.9699997 1.59999962,10.2399997 4.19499962,9.20499969 C6.49999962,8.41499969 9.26499962,8.93999969 11.3449996,10.1399997 C13.9049996,11.5649997 15.4299996,13.8349997 17.8399996,15.5399997 C18.4249996,11.9049997 17.7599996,8.24999969 18.2349996,4.63499969 C18.9199996,0.499999685 25.2749996,-1.23000031 27.7549996,2.22999969 Z M15.9849996,18.7549997 C14.1499996,16.2699997 11.7399996,13.8799997 8.91999962,12.5549997 C7.16499962,11.8199997 5.07999962,11.7099997 3.97999962,13.5549997 C2.92999962,15.6599997 4.31999962,17.8499997 6.42499962,18.5199997 C9.40499962,19.3849997 12.9299996,19.0449997 15.9849996,18.7549997 Z M31.4899996,18.7549997 C34.1299996,18.9149997 36.8199996,19.0649997 39.4549996,18.8049997 C41.2949996,18.6599997 43.2799996,17.2349997 43.7699996,15.4199997 C43.6999996,13.5799997 42.0449996,11.8199997 40.0999996,12.1499997 C37.9949996,12.4499997 35.9949996,14.0699997 34.3299996,15.3149997 C33.0699996,16.2399997 32.2099996,17.3799997 31.4899996,18.7549997 Z" id="p2" fill="#000000" fill-rule="nonzero"></path>
    </g>
</svg>