<?xml version="1.0" encoding="UTF-8"?>
<svg width="153px" height="155px" viewBox="0 0 153 155" version="1.1" xmlns="http://www.w3.org/2000/svg" xmlns:xlink="http://www.w3.org/1999/xlink">
    <title>Group 2</title>
    <defs>
        <rect id="path-1" x="0" y="0" width="153" height="155" rx="35"></rect>
    </defs>
    <g id="Page-1" stroke="none" stroke-width="1" fill="none" fill-rule="evenodd">
        <g id="Group-2">
            <mask id="mask-2" fill="white">
                <use xlink:href="#path-1"></use>
            </mask>
            <g id="Rectangle"></g>
            <g id="icon" mask="url(#mask-2)">
                <g transform="translate(-9.000000, -7.000000)" id="Group">
                    <g>
                        <g id="p0-link" fill="#000000" fill-rule="nonzero" stroke="#EFF6F8">
                            <path d="M0,0 L176,0 L176,170 L0,170 L0,0 Z M81,6.56 C67,6.575 52.995,6.57 38.995,6.605 C31.78,6.44 24.525,9.415 19.125,14.125 C14.35,18.515 11.1,24.61 9.965,30.99 C9.345,34.315 9.3,37.625 9.315,41 C9.355,66.335 9.385,91.66 9.36,117 C9.365,122.195 9.24,127.32 9.555,132.51 C9.67,135.205 9.815,137.84 10.6,140.445 C12.425,146.405 15.59,152.07 20.81,155.695 C24.515,158.1 28.435,160.07 32.835,160.83 C37.93,162.165 42.81,161.63 48,161.72 C75.835,161.74 103.665,161.715 131.5,161.73 C135.07,161.745 138.515,161.87 142.055,161.275 C149.49,160.2 156.355,155.78 160.52,149.545 C163.805,144.915 165.49,139.155 165.79,133.525 C165.79,102.685 165.79,71.84 165.785,41 C165.775,37 166.025,33.175 165.13,29.23 C164.385,25.185 162.45,21.725 160.075,18.425 C157.005,14.19 152.51,10.935 147.81,8.735 C141.72,5.93 135.055,6.485 128.5,6.41 C121.835,6.445 115.165,6.385 108.5,6.455 C99.325,6.83 90.175,6.14 81,6.56 Z" id="p0"></path>
                        </g>
                        <g id="p1-link" transform="translate(9.312783, 6.410000)" fill="#000000" fill-rule="nonzero" stroke="#04B9CC">
                            <path d="M29.6822166,0.195 C43.6822166,0.16 57.6872166,0.165 71.6872166,0.15 C80.8622166,-0.27 90.0122166,0.42 99.1872166,0.045 C105.852217,-0.025 112.522217,0.035 119.187217,0 C125.742217,0.075 132.407217,-0.48 138.497217,2.325 C143.197217,4.525 147.692217,7.78 150.762217,12.015 C153.137217,15.315 155.072217,18.775 155.817217,22.82 C156.712217,26.765 156.462217,30.59 156.472217,34.59 C156.477217,65.43 156.477217,96.275 156.477217,127.115 C156.177217,132.745 154.492217,138.505 151.207217,143.135 C147.042217,149.37 140.177217,153.79 132.742217,154.865 C129.202217,155.46 125.757217,155.335 122.187217,155.32 C94.3522166,155.305 66.5222166,155.33 38.6872166,155.31 C33.4972166,155.22 28.6172166,155.755 23.5222166,154.42 C19.1222166,153.66 15.2022166,151.69 11.4972166,149.285 C6.27721657,145.66 3.11221657,139.995 1.28721657,134.035 C0.502216571,131.43 0.357216571,128.795 0.242216571,126.1 C-0.0727834293,120.91 0.0522165707,115.785 0.0472165707,110.59 C0.0722165707,85.25 0.0422165707,59.925 0.00221657073,34.59 C-0.0127834293,31.215 0.0322165707,27.905 0.652216571,24.58 C1.78721657,18.2 5.03721657,12.105 9.81221657,7.715 C15.2122166,3.005 22.4672166,0.03 29.6822166,0.195 Z M61.5272166,42.13 C59.1172166,40.425 57.5922166,38.155 55.0322166,36.73 C52.9522166,35.53 50.1872166,35.005 47.8822166,35.795 C45.2872166,36.83 43.1272166,39.56 43.7922166,42.485 C44.1972166,44.81 45.9672166,46.28 47.9572166,47.31 C50.7422166,48.795 54.5422166,48.605 57.6422166,48.825 C55.3672166,50.795 52.6022166,52.82 50.9422166,55.335 C50.3072166,56.21 50.2172166,57.18 50.0322166,58.21 C51.0022166,58.12 51.9522166,58.34 52.7172166,57.64 C54.2422166,56.335 55.3622166,54.625 56.9122166,53.33 C58.2672166,52.105 59.8372166,51.255 61.5222166,50.58 C61.9622166,54.095 61.4972166,57.57 61.6972166,61.09 C62.0072166,68.265 61.4322166,75.41 61.6022166,82.59 C61.5572166,85.135 61.8872166,87.855 61.3772166,90.35 C60.9722166,91.555 60.0322166,91.235 59.0272166,91.41 C58.3922166,85.42 59.3972166,79.07 58.4872166,73.085 C55.6122166,74.27 53.3572166,76.915 51.2522166,79.165 C48.2022166,82.565 48.2372166,87.295 48.5922166,91.58 C49.0622166,95.305 48.6972166,99.15 50.2122166,102.505 C52.2372166,107.05 55.8022166,111.04 58.6522166,115.095 C60.1872166,117.295 61.8922166,119.525 62.3822166,122.23 C62.8072166,124.14 62.7322166,126.425 63.6022166,128.185 C64.6722166,128.91 66.2872166,128.88 67.5372166,128.92 C77.4172166,128.72 87.3072166,128.68 97.1872166,128.795 C99.0822166,128.785 101.162217,128.905 102.997217,128.39 C103.927217,128.16 104.172217,127.13 104.327217,126.315 C104.702217,123.975 104.662217,121.76 105.592217,119.52 C107.672217,114.52 109.812217,109.63 111.487217,104.455 C111.872217,103.205 111.982217,101.915 111.997217,100.61 C111.962217,93.595 111.927217,86.58 112.002217,79.565 C111.987217,78.01 111.967217,76.59 110.922217,75.34 C109.907217,74.085 108.532217,72.55 106.752217,72.745 C104.982217,72.805 102.817217,73.72 102.127217,75.475 C101.627217,77.205 101.612217,79.115 101.412217,80.905 C100.887217,81.11 100.362217,81.31 99.8372166,81.525 C99.0172166,77.45 100.367217,72.655 97.9372166,69.3 C95.9472166,66.255 90.5172166,66.43 89.1722166,70.01 C88.6672166,72.065 88.8772166,74.295 88.5172166,76.395 C87.9322166,76.415 87.3472166,76.435 86.7622166,76.46 C85.6922166,72.81 86.8872166,68.705 85.5272166,65.19 C84.0222166,61.28 77.3872166,61.51 75.9422166,65.325 C75.0272166,68.03 76.0122166,70.79 75.0722166,73.58 C74.2222166,73.34 73.0222166,73.68 72.9672166,72.46 C72.7222166,69.02 72.8922166,65.54 72.7572166,62.09 C72.8272166,58.145 72.4972166,54.04 73.1472166,50.15 C75.3872166,51.515 77.4622166,53.11 79.2022166,55.085 C80.1372166,56.095 80.9872166,57.325 82.0972166,58.15 C82.8322166,58.51 83.8222166,58.41 84.6272166,58.495 C84.4872166,57.605 84.5022166,56.53 83.9622166,55.785 C82.0872166,53.05 79.3472166,51.495 77.1422166,48.88 C81.3272166,48.53 85.1222166,48.725 88.6372166,46.03 C90.8472166,44.435 90.9922166,41.385 90.1972166,39.01 C88.4122166,35.59 84.2072166,34.865 80.8472166,36.26 C77.5472166,37.755 75.5472166,40.215 72.9172166,42.555 C72.6922166,39.56 72.6122166,36.58 72.6372166,33.575 C72.5922166,31.825 72.6122166,30.245 71.4422166,28.82 C68.9622166,25.36 62.6072166,27.09 61.9222166,31.225 C61.4472166,34.84 62.1122166,38.495 61.5272166,42.13 Z" id="p1"></path>
                        </g>
                        <g id="p2-link" transform="translate(52.983374, 33.379864)" fill="#000000" fill-rule="nonzero" stroke="#EFF6F8">
                            <path d="M27.7716256,1.85013569 C28.9416256,3.27513569 28.9216256,4.85513569 28.9666256,6.60513569 C28.9416256,9.61013569 29.0216256,12.5901357 29.2466256,15.5851357 C31.8766256,13.2451357 33.8766256,10.7851357 37.1766256,9.29013569 C40.5366256,7.89513569 44.7416256,8.62013569 46.5266256,12.0401357 C47.3216256,14.4151357 47.1766256,17.4651357 44.9666256,19.0601357 C41.4516256,21.7551357 37.6566256,21.5601357 33.4716256,21.9101357 C35.6766256,24.5251357 38.4166256,26.0801357 40.2916256,28.8151357 C40.8316256,29.5601357 40.8166256,30.6351357 40.9566256,31.5251357 C40.1516256,31.4401357 39.1616256,31.5401357 38.4266256,31.1801357 C37.3166256,30.3551357 36.4666256,29.1251357 35.5316256,28.1151357 C33.7916256,26.1401357 31.7166256,24.5451357 29.4766256,23.1801357 C28.8266256,27.0701357 29.1566256,31.1751357 29.0866256,35.1201357 C29.2216256,38.5701357 29.0516256,42.0501357 29.2966256,45.4901357 C29.3516256,46.7101357 30.5516256,46.3701357 31.4016256,46.6101357 C32.3416256,43.8201357 31.3566256,41.0601357 32.2716256,38.3551357 C33.7166256,34.5401357 40.3516256,34.3101357 41.8566256,38.2201357 C43.2166256,41.7351357 42.0216256,45.8401357 43.0916256,49.4901357 C43.6766256,49.4651357 44.2616256,49.4451357 44.8466256,49.4251357 C45.2066256,47.3251357 44.9966256,45.0951357 45.5016256,43.0401357 C46.8466256,39.4601357 52.2766256,39.2851357 54.2666256,42.3301357 C56.6966256,45.6851357 55.3466256,50.4801357 56.1666256,54.5551357 C56.6916256,54.3401357 57.2166256,54.1401357 57.7416256,53.9351357 C57.9416256,52.1451357 57.9566256,50.2351357 58.4566256,48.5051357 C59.1466256,46.7501357 61.3116256,45.8351357 63.0816256,45.7751357 C64.8616256,45.5801357 66.2366256,47.1151357 67.2516256,48.3701357 C68.2966256,49.6201357 68.3166256,51.0401357 68.3316256,52.5951357 C68.2566256,59.6101357 68.2916256,66.6251357 68.3266256,73.6401357 C68.3116256,74.9451357 68.2016256,76.2351357 67.8166256,77.4851357 C66.1416256,82.6601357 64.0016256,87.5501357 61.9216256,92.5501357 C60.9916256,94.7901357 61.0316256,97.0051357 60.6566256,99.3451357 C60.5016256,100.160136 60.2566256,101.190136 59.3266256,101.420136 C57.4916256,101.935136 55.4116256,101.815136 53.5166256,101.825136 C43.6366256,101.710136 33.7466256,101.750136 23.8666256,101.950136 C22.6166256,101.910136 21.0016256,101.940136 19.9316256,101.215136 C19.0616256,99.4551357 19.1366256,97.1701357 18.7116256,95.2601357 C18.2216256,92.5551357 16.5166256,90.3251357 14.9816256,88.1251357 C12.1316256,84.0701357 8.56662562,80.0801357 6.54162562,75.5351357 C5.02662562,72.1801357 5.39162562,68.3351357 4.92162562,64.6101357 C4.56662562,60.3251357 4.53162562,55.5951357 7.58162562,52.1951357 C9.68662562,49.9451357 11.9416256,47.3001357 14.8166256,46.1151357 C15.7266256,52.1001357 14.7216256,58.4501357 15.3566256,64.4401357 C16.3616256,64.2651357 17.3016256,64.5851357 17.7066256,63.3801357 C18.2166256,60.8851357 17.8866256,58.1651357 17.9316256,55.6201357 C17.7616256,48.4401357 18.3366256,41.2951357 18.0266256,34.1201357 C17.8266256,30.6001357 18.2916256,27.1251357 17.8516256,23.6101357 C16.1666256,24.2851357 14.5966256,25.1351357 13.2416256,26.3601357 C11.6916256,27.6551357 10.5716256,29.3651357 9.04662562,30.6701357 C8.28162562,31.3701357 7.33162562,31.1501357 6.36162562,31.2401357 C6.54662562,30.2101357 6.63662562,29.2401357 7.27162562,28.3651357 C8.93162562,25.8501357 11.6966256,23.8251357 13.9716256,21.8551357 C10.8716256,21.6351357 7.07162562,21.8251357 4.28662562,20.3401357 C2.29662562,19.3101357 0.526625623,17.8401357 0.121625623,15.5151357 C-0.543374377,12.5901357 1.61662562,9.86013569 4.21162562,8.82513569 C6.51662562,8.03513569 9.28162562,8.56013569 11.3616256,9.76013569 C13.9216256,11.1851357 15.4466256,13.4551357 17.8566256,15.1601357 C18.4416256,11.5251357 17.7766256,7.87013569 18.2516256,4.25513569 C18.9366256,0.120135685 25.2916256,-1.60986431 27.7716256,1.85013569 Z M16.0016256,18.3751357 C14.1666256,15.8901357 11.7566256,13.5001357 8.93662562,12.1751357 C7.18162562,11.4401357 5.09662562,11.3301357 3.99662562,13.1751357 C2.94662562,15.2801357 4.33662562,17.4701357 6.44162562,18.1401357 C9.42162562,19.0051357 12.9466256,18.6651357 16.0016256,18.3751357 Z M31.5066256,18.3751357 C34.1466256,18.5351357 36.8366256,18.6851357 39.4716256,18.4251357 C41.3116256,18.2801357 43.2966256,16.8551357 43.7866256,15.0401357 C43.7166256,13.2001357 42.0616256,11.4401357 40.1166256,11.7701357 C38.0116256,12.0701357 36.0116256,13.6901357 34.3466256,14.9351357 C33.0866256,15.8601357 32.2266256,17.0001357 31.5066256,18.3751357 Z" id="p2"></path>
                        </g>
                        <g id="p3-link" transform="translate(56.621609, 45.057802)" fill="#000000" fill-rule="nonzero" stroke="#04B9CC">
                            <path d="M5.2983907,0.497198308 C8.1183907,1.82219831 10.5283907,4.21219831 12.3633907,6.69719831 C9.3083907,6.98719831 5.7833907,7.32719831 2.8033907,6.46219831 C0.698390705,5.79219831 -0.691609295,3.60219831 0.358390705,1.49719831 C1.4583907,-0.347801692 3.5433907,-0.237801692 5.2983907,0.497198308 Z" id="p3"></path>
                        </g>
                        <g id="p4-link" transform="translate(84.490000, 45.109871)" fill="#000000" fill-rule="nonzero" stroke="#04B9CC">
                            <path d="M8.61,0.0401289919 C10.555,-0.289871008 12.21,1.47012899 12.28,3.31012899 C11.79,5.12512899 9.805,6.55012899 7.965,6.69512899 C5.33,6.95512899 2.64,6.80512899 0,6.64512899 C0.72,5.27012899 1.58,4.13012899 2.84,3.20512899 C4.505,1.96012899 6.505,0.340128992 8.61,0.0401289919 Z" id="p4"></path>
                        </g>
                    </g>
                    <g>
                        <g id="p0-link" fill="#EFF6F8" fill-rule="nonzero">
                            <path d="M0,0 L176,0 L176,170 L0,170 L0,0 Z M81,6.56 C67,6.575 52.995,6.57 38.995,6.605 C31.78,6.44 24.525,9.415 19.125,14.125 C14.35,18.515 11.1,24.61 9.965,30.99 C9.345,34.315 9.3,37.625 9.315,41 C9.355,66.335 9.385,91.66 9.36,117 C9.365,122.195 9.24,127.32 9.555,132.51 C9.67,135.205 9.815,137.84 10.6,140.445 C12.425,146.405 15.59,152.07 20.81,155.695 C24.515,158.1 28.435,160.07 32.835,160.83 C37.93,162.165 42.81,161.63 48,161.72 C75.835,161.74 103.665,161.715 131.5,161.73 C135.07,161.745 138.515,161.87 142.055,161.275 C149.49,160.2 156.355,155.78 160.52,149.545 C163.805,144.915 165.49,139.155 165.79,133.525 C165.79,102.685 165.79,71.84 165.785,41 C165.775,37 166.025,33.175 165.13,29.23 C164.385,25.185 162.45,21.725 160.075,18.425 C157.005,14.19 152.51,10.935 147.81,8.735 C141.72,5.93 135.055,6.485 128.5,6.41 C121.835,6.445 115.165,6.385 108.5,6.455 C99.325,6.83 90.175,6.14 81,6.56 Z" id="p0"></path>
                        </g>
                        <g id="p1-link" transform="translate(9.312783, 6.410000)" fill="#04B9CC" fill-rule="nonzero">
                            <path d="M29.6822166,0.195 C43.6822166,0.16 57.6872166,0.165 71.6872166,0.15 C80.8622166,-0.27 90.0122166,0.42 99.1872166,0.045 C105.852217,-0.025 112.522217,0.035 119.187217,0 C125.742217,0.075 132.407217,-0.48 138.497217,2.325 C143.197217,4.525 147.692217,7.78 150.762217,12.015 C153.137217,15.315 155.072217,18.775 155.817217,22.82 C156.712217,26.765 156.462217,30.59 156.472217,34.59 C156.477217,65.43 156.477217,96.275 156.477217,127.115 C156.177217,132.745 154.492217,138.505 151.207217,143.135 C147.042217,149.37 140.177217,153.79 132.742217,154.865 C129.202217,155.46 125.757217,155.335 122.187217,155.32 C94.3522166,155.305 66.5222166,155.33 38.6872166,155.31 C33.4972166,155.22 28.6172166,155.755 23.5222166,154.42 C19.1222166,153.66 15.2022166,151.69 11.4972166,149.285 C6.27721657,145.66 3.11221657,139.995 1.28721657,134.035 C0.502216571,131.43 0.357216571,128.795 0.242216571,126.1 C-0.0727834293,120.91 0.0522165707,115.785 0.0472165707,110.59 C0.0722165707,85.25 0.0422165707,59.925 0.00221657073,34.59 C-0.0127834293,31.215 0.0322165707,27.905 0.652216571,24.58 C1.78721657,18.2 5.03721657,12.105 9.81221657,7.715 C15.2122166,3.005 22.4672166,0.03 29.6822166,0.195 Z M61.5272166,42.13 C59.1172166,40.425 57.5922166,38.155 55.0322166,36.73 C52.9522166,35.53 50.1872166,35.005 47.8822166,35.795 C45.2872166,36.83 43.1272166,39.56 43.7922166,42.485 C44.1972166,44.81 45.9672166,46.28 47.9572166,47.31 C50.7422166,48.795 54.5422166,48.605 57.6422166,48.825 C55.3672166,50.795 52.6022166,52.82 50.9422166,55.335 C50.3072166,56.21 50.2172166,57.18 50.0322166,58.21 C51.0022166,58.12 51.9522166,58.34 52.7172166,57.64 C54.2422166,56.335 55.3622166,54.625 56.9122166,53.33 C58.2672166,52.105 59.8372166,51.255 61.5222166,50.58 C61.9622166,54.095 61.4972166,57.57 61.6972166,61.09 C62.0072166,68.265 61.4322166,75.41 61.6022166,82.59 C61.5572166,85.135 61.8872166,87.855 61.3772166,90.35 C60.9722166,91.555 60.0322166,91.235 59.0272166,91.41 C58.3922166,85.42 59.3972166,79.07 58.4872166,73.085 C55.6122166,74.27 53.3572166,76.915 51.2522166,79.165 C48.2022166,82.565 48.2372166,87.295 48.5922166,91.58 C49.0622166,95.305 48.6972166,99.15 50.2122166,102.505 C52.2372166,107.05 55.8022166,111.04 58.6522166,115.095 C60.1872166,117.295 61.8922166,119.525 62.3822166,122.23 C62.8072166,124.14 62.7322166,126.425 63.6022166,128.185 C64.6722166,128.91 66.2872166,128.88 67.5372166,128.92 C77.4172166,128.72 87.3072166,128.68 97.1872166,128.795 C99.0822166,128.785 101.162217,128.905 102.997217,128.39 C103.927217,128.16 104.172217,127.13 104.327217,126.315 C104.702217,123.975 104.662217,121.76 105.592217,119.52 C107.672217,114.52 109.812217,109.63 111.487217,104.455 C111.872217,103.205 111.982217,101.915 111.997217,100.61 C111.962217,93.595 111.927217,86.58 112.002217,79.565 C111.987217,78.01 111.967217,76.59 110.922217,75.34 C109.907217,74.085 108.532217,72.55 106.752217,72.745 C104.982217,72.805 102.817217,73.72 102.127217,75.475 C101.627217,77.205 101.612217,79.115 101.412217,80.905 C100.887217,81.11 100.362217,81.31 99.8372166,81.525 C99.0172166,77.45 100.367217,72.655 97.9372166,69.3 C95.9472166,66.255 90.5172166,66.43 89.1722166,70.01 C88.6672166,72.065 88.8772166,74.295 88.5172166,76.395 C87.9322166,76.415 87.3472166,76.435 86.7622166,76.46 C85.6922166,72.81 86.8872166,68.705 85.5272166,65.19 C84.0222166,61.28 77.3872166,61.51 75.9422166,65.325 C75.0272166,68.03 76.0122166,70.79 75.0722166,73.58 C74.2222166,73.34 73.0222166,73.68 72.9672166,72.46 C72.7222166,69.02 72.8922166,65.54 72.7572166,62.09 C72.8272166,58.145 72.4972166,54.04 73.1472166,50.15 C75.3872166,51.515 77.4622166,53.11 79.2022166,55.085 C80.1372166,56.095 80.9872166,57.325 82.0972166,58.15 C82.8322166,58.51 83.8222166,58.41 84.6272166,58.495 C84.4872166,57.605 84.5022166,56.53 83.9622166,55.785 C82.0872166,53.05 79.3472166,51.495 77.1422166,48.88 C81.3272166,48.53 85.1222166,48.725 88.6372166,46.03 C90.8472166,44.435 90.9922166,41.385 90.1972166,39.01 C88.4122166,35.59 84.2072166,34.865 80.8472166,36.26 C77.5472166,37.755 75.5472166,40.215 72.9172166,42.555 C72.6922166,39.56 72.6122166,36.58 72.6372166,33.575 C72.5922166,31.825 72.6122166,30.245 71.4422166,28.82 C68.9622166,25.36 62.6072166,27.09 61.9222166,31.225 C61.4472166,34.84 62.1122166,38.495 61.5272166,42.13 Z" id="p1"></path>
                        </g>
                        <g id="p2-link" transform="translate(52.983374, 33.379864)" fill="#EFF6F8" fill-rule="nonzero">
                            <path d="M27.7716256,1.85013569 C28.9416256,3.27513569 28.9216256,4.85513569 28.9666256,6.60513569 C28.9416256,9.61013569 29.0216256,12.5901357 29.2466256,15.5851357 C31.8766256,13.2451357 33.8766256,10.7851357 37.1766256,9.29013569 C40.5366256,7.89513569 44.7416256,8.62013569 46.5266256,12.0401357 C47.3216256,14.4151357 47.1766256,17.4651357 44.9666256,19.0601357 C41.4516256,21.7551357 37.6566256,21.5601357 33.4716256,21.9101357 C35.6766256,24.5251357 38.4166256,26.0801357 40.2916256,28.8151357 C40.8316256,29.5601357 40.8166256,30.6351357 40.9566256,31.5251357 C40.1516256,31.4401357 39.1616256,31.5401357 38.4266256,31.1801357 C37.3166256,30.3551357 36.4666256,29.1251357 35.5316256,28.1151357 C33.7916256,26.1401357 31.7166256,24.5451357 29.4766256,23.1801357 C28.8266256,27.0701357 29.1566256,31.1751357 29.0866256,35.1201357 C29.2216256,38.5701357 29.0516256,42.0501357 29.2966256,45.4901357 C29.3516256,46.7101357 30.5516256,46.3701357 31.4016256,46.6101357 C32.3416256,43.8201357 31.3566256,41.0601357 32.2716256,38.3551357 C33.7166256,34.5401357 40.3516256,34.3101357 41.8566256,38.2201357 C43.2166256,41.7351357 42.0216256,45.8401357 43.0916256,49.4901357 C43.6766256,49.4651357 44.2616256,49.4451357 44.8466256,49.4251357 C45.2066256,47.3251357 44.9966256,45.0951357 45.5016256,43.0401357 C46.8466256,39.4601357 52.2766256,39.2851357 54.2666256,42.3301357 C56.6966256,45.6851357 55.3466256,50.4801357 56.1666256,54.5551357 C56.6916256,54.3401357 57.2166256,54.1401357 57.7416256,53.9351357 C57.9416256,52.1451357 57.9566256,50.2351357 58.4566256,48.5051357 C59.1466256,46.7501357 61.3116256,45.8351357 63.0816256,45.7751357 C64.8616256,45.5801357 66.2366256,47.1151357 67.2516256,48.3701357 C68.2966256,49.6201357 68.3166256,51.0401357 68.3316256,52.5951357 C68.2566256,59.6101357 68.2916256,66.6251357 68.3266256,73.6401357 C68.3116256,74.9451357 68.2016256,76.2351357 67.8166256,77.4851357 C66.1416256,82.6601357 64.0016256,87.5501357 61.9216256,92.5501357 C60.9916256,94.7901357 61.0316256,97.0051357 60.6566256,99.3451357 C60.5016256,100.160136 60.2566256,101.190136 59.3266256,101.420136 C57.4916256,101.935136 55.4116256,101.815136 53.5166256,101.825136 C43.6366256,101.710136 33.7466256,101.750136 23.8666256,101.950136 C22.6166256,101.910136 21.0016256,101.940136 19.9316256,101.215136 C19.0616256,99.4551357 19.1366256,97.1701357 18.7116256,95.2601357 C18.2216256,92.5551357 16.5166256,90.3251357 14.9816256,88.1251357 C12.1316256,84.0701357 8.56662562,80.0801357 6.54162562,75.5351357 C5.02662562,72.1801357 5.39162562,68.3351357 4.92162562,64.6101357 C4.56662562,60.3251357 4.53162562,55.5951357 7.58162562,52.1951357 C9.68662562,49.9451357 11.9416256,47.3001357 14.8166256,46.1151357 C15.7266256,52.1001357 14.7216256,58.4501357 15.3566256,64.4401357 C16.3616256,64.2651357 17.3016256,64.5851357 17.7066256,63.3801357 C18.2166256,60.8851357 17.8866256,58.1651357 17.9316256,55.6201357 C17.7616256,48.4401357 18.3366256,41.2951357 18.0266256,34.1201357 C17.8266256,30.6001357 18.2916256,27.1251357 17.8516256,23.6101357 C16.1666256,24.2851357 14.5966256,25.1351357 13.2416256,26.3601357 C11.6916256,27.6551357 10.5716256,29.3651357 9.04662562,30.6701357 C8.28162562,31.3701357 7.33162562,31.1501357 6.36162562,31.2401357 C6.54662562,30.2101357 6.63662562,29.2401357 7.27162562,28.3651357 C8.93162562,25.8501357 11.6966256,23.8251357 13.9716256,21.8551357 C10.8716256,21.6351357 7.07162562,21.8251357 4.28662562,20.3401357 C2.29662562,19.3101357 0.526625623,17.8401357 0.121625623,15.5151357 C-0.543374377,12.5901357 1.61662562,9.86013569 4.21162562,8.82513569 C6.51662562,8.03513569 9.28162562,8.56013569 11.3616256,9.76013569 C13.9216256,11.1851357 15.4466256,13.4551357 17.8566256,15.1601357 C18.4416256,11.5251357 17.7766256,7.87013569 18.2516256,4.25513569 C18.9366256,0.120135685 25.2916256,-1.60986431 27.7716256,1.85013569 Z M16.0016256,18.3751357 C14.1666256,15.8901357 11.7566256,13.5001357 8.93662562,12.1751357 C7.18162562,11.4401357 5.09662562,11.3301357 3.99662562,13.1751357 C2.94662562,15.2801357 4.33662562,17.4701357 6.44162562,18.1401357 C9.42162562,19.0051357 12.9466256,18.6651357 16.0016256,18.3751357 Z M31.5066256,18.3751357 C34.1466256,18.5351357 36.8366256,18.6851357 39.4716256,18.4251357 C41.3116256,18.2801357 43.2966256,16.8551357 43.7866256,15.0401357 C43.7166256,13.2001357 42.0616256,11.4401357 40.1166256,11.7701357 C38.0116256,12.0701357 36.0116256,13.6901357 34.3466256,14.9351357 C33.0866256,15.8601357 32.2266256,17.0001357 31.5066256,18.3751357 Z" id="p2"></path>
                        </g>
                        <g id="p3-link" transform="translate(56.621609, 45.057802)" fill="#04B9CC" fill-rule="nonzero">
                            <path d="M5.2983907,0.497198308 C8.1183907,1.82219831 10.5283907,4.21219831 12.3633907,6.69719831 C9.3083907,6.98719831 5.7833907,7.32719831 2.8033907,6.46219831 C0.698390705,5.79219831 -0.691609295,3.60219831 0.358390705,1.49719831 C1.4583907,-0.347801692 3.5433907,-0.237801692 5.2983907,0.497198308 Z" id="p3"></path>
                        </g>
                        <g id="p4-link" transform="translate(84.490000, 45.109871)" fill="#04B9CC" fill-rule="nonzero">
                            <path d="M8.61,0.0401289919 C10.555,-0.289871008 12.21,1.47012899 12.28,3.31012899 C11.79,5.12512899 9.805,6.55012899 7.965,6.69512899 C5.33,6.95512899 2.64,6.80512899 0,6.64512899 C0.72,5.27012899 1.58,4.13012899 2.84,3.20512899 C4.505,1.96012899 6.505,0.340128992 8.61,0.0401289919 Z" id="p4"></path>
                        </g>
                    </g>
                </g>
            </g>
        </g>
    </g>
</svg>